Coordinates
version=1
nRows=16
nColumns=40
inDegrees=yes

Units are S.I. units (second, meters, Newtons, ...)
If the header above contains a line with 'inDegrees', this indicates whether rotational values are in degrees (yes) or radians (no).

endheader
time	pelvis_tilt	pelvis_list	pelvis_rotation	pelvis_tx	pelvis_ty	pelvis_tz	hip_flexion_r	hip_adduction_r	hip_rotation_r	knee_angle_r	knee_angle_r_beta	ankle_angle_r	subtalar_angle_r	mtp_angle_r	hip_flexion_l	hip_adduction_l	hip_rotation_l	knee_angle_l	knee_angle_l_beta	ankle_angle_l	subtalar_angle_l	mtp_angle_l	lumbar_extension	lumbar_bending	lumbar_rotation	arm_flex_r	arm_add_r	arm_rot_r	elbow_flex_r	pro_sup_r	wrist_flex_r	wrist_dev_r	arm_flex_l	arm_add_l	arm_rot_l	elbow_flex_l	pro_sup_l	wrist_flex_l	wrist_dev_l
      0.62800000	     68.47743855	     79.10627736	    -68.46364168	      0.98964286	      0.30183963	      0.93099629	    -28.05427665	      4.68632761	      1.67330360	     21.53697073	      0.37589105	    -18.15505013	      0.00000000	      0.00000000	     19.55759718	     -3.40556193	      0.08827619	     20.81297841	      0.36325500	    -18.60416926	      0.00000000	      0.00000000	    -22.32503341	      2.46011977	      4.60601188	     11.80957025	    -17.29421340	     16.61706478	     41.71482646	     73.58830433	      0.00000000	      0.00000000	     -2.14291219	    -20.57196640	     18.61487309	     41.31716929	     72.39137720	      0.00000000	      0.00000000
      0.63200000	     69.02811844	     79.26030710	    -68.79665348	      0.99659626	      0.30246186	      0.93077062	    -27.80626042	      4.52363751	      1.35594306	     22.23141776	      0.38801144	    -19.57439975	      0.00000000	      0.00000000	     19.81099902	     -3.17308982	      0.36446147	     21.86113156	      0.38154872	    -18.38671621	      0.00000000	      0.00000000	    -22.08128265	      2.33265692	      4.28105291	     11.53247955	    -17.01631793	     16.22924597	     41.52635159	     73.70547694	      0.00000000	      0.00000000	     -2.33578220	    -20.57486295	     18.49326237	     41.28221092	     72.38219217	      0.00000000	      0.00000000
      0.63600000	     71.41660069	     79.32081774	    -71.10392545	      1.00312390	      0.30330098	      0.93104901	    -27.60787640	      3.97758453	      0.95841822	     23.19294610	      0.40479327	    -20.66992346	      0.00000000	      0.00000000	     19.57955986	     -2.59361670	      0.64235472	     22.41985398	      0.39130027	    -18.27447070	      0.00000000	      0.00000000	    -22.12276094	      1.86862666	      4.10787645	     11.22553893	    -16.81300276	     15.69997471	     41.49627813	     74.53551173	      0.00000000	      0.00000000	     -2.06713564	    -20.53359340	     18.71528642	     40.71171612	     72.46136252	      0.00000000	      0.00000000
      0.64000000	     71.85278012	     79.29995027	    -71.35734294	      1.00971220	      0.30388557	      0.93135236	    -27.49933067	      3.93360626	      0.87888804	     23.74455283	      0.41442063	    -22.31059739	      0.00000000	      0.00000000	     19.55386813	     -2.40937019	      0.96096599	     23.27013144	      0.40614041	    -17.73405742	      0.00000000	      0.00000000	    -22.06992504	      1.81240493	      3.87061797	     11.02378576	    -16.61805759	     15.54745769	     41.29563174	     74.50959480	      0.00000000	      0.00000000	     -2.09707129	    -20.53802967	     18.80507367	     40.57277289	     72.46216454	      0.00000000	      0.00000000
      0.64400000	     72.18156155	     79.25528536	    -71.51981074	      1.01594685	      0.30432676	      0.93182453	    -27.34698708	      3.95126183	      1.09403296	     24.40329123	      0.42591778	    -23.63826891	      0.00000000	      0.00000000	     19.44777363	     -2.25579409	      1.47911927	     23.93237035	      0.41769866	    -17.43404953	      0.00000000	      0.00000000	    -22.12688159	      1.76019831	      3.63369084	     10.87592124	    -16.39909554	     15.31408888	     41.13678376	     74.49997648	      0.00000000	      0.00000000	     -2.09473540	    -20.55680568	     18.71833033	     40.45544043	     72.43020314	      0.00000000	      0.00000000
      0.64800000	     72.99344010	     79.51394544	    -71.79486284	      1.02344592	      0.30561382	      0.93167203	    -27.00670103	      3.79823581	      0.09839317	     24.90908397	      0.43474553	    -25.58349043	      0.00000000	      0.00000000	     19.69303670	     -1.77503131	      1.97482154	     24.89437388	      0.43448879	    -16.58487776	      0.00000000	      0.00000000	    -21.69695559	      1.66714900	      3.04687230	     10.40530288	    -16.15000502	     14.92011341	     41.00817620	     74.57216540	      0.00000000	      0.00000000	     -2.30249439	    -20.56644721	     18.65374081	     40.34589236	     72.45963690	      0.00000000	      0.00000000
      0.65200000	     73.84778902	     79.57085260	    -72.42284296	      1.03024606	      0.30643211	      0.93202918	    -26.76534309	      3.60275034	     -0.28341239	     25.56326776	      0.44616319	    -27.20204111	      0.00000000	      0.00000000	     19.65991573	     -1.44987775	      2.29782918	     25.67613998	      0.44813318	    -16.08540258	      0.00000000	      0.00000000	    -21.57548818	      1.53146792	      2.80319823	      9.97670179	    -15.97391735	     14.41095161	     41.02176439	     74.47968676	      0.00000000	      0.00000000	     -2.30031687	    -20.56896936	     18.80063379	     40.19898187	     72.50952948	      0.00000000	      0.00000000
      0.65600000	     74.55225393	     79.59535417	    -72.81770628	      1.03694477	      0.30693590	      0.93248167	    -26.51220194	      3.53534693	     -0.62516013	     26.24258724	      0.45801955	    -28.78333047	      0.00000000	      0.00000000	     19.49220434	     -1.12010337	      2.89003138	     26.21595340	      0.45755470	    -15.60780597	      0.00000000	      0.00000000	    -21.48522424	      1.42325500	      2.47269822	      9.67902968	    -15.71392343	     14.08135005	     40.87600222	     74.50247904	      0.00000000	      0.00000000	     -2.29302190	    -20.65166487	     18.89444396	     40.06984308	     72.46151755	      0.00000000	      0.00000000
      0.66000000	     75.12382420	     79.63458165	    -73.18301024	      1.04344169	      0.30755596	      0.93301997	    -26.19939269	      3.43761019	     -0.76229423	     26.94685894	      0.47031141	    -30.23164384	      0.00000000	      0.00000000	     19.38851607	     -0.89629227	      3.10616231	     26.82761729	      0.46823025	    -15.14808475	      0.00000000	      0.00000000	    -21.41186961	      1.31571179	      2.21841114	      9.43681354	    -15.51338935	     13.85293767	     40.69229094	     74.54586493	      0.00000000	      0.00000000	     -2.30083422	    -20.70070859	     18.89737668	     40.00210065	     72.47715775	      0.00000000	      0.00000000
      0.66400000	     75.76572520	     79.65659080	    -73.54570132	      1.05009120	      0.30792819	      0.93347405	    -25.91645618	      3.38329668	     -0.91988249	     27.66403167	      0.48282844	    -31.45069499	      0.00000000	      0.00000000	     19.24458915	     -0.66573569	      3.36787629	     27.42783366	      0.47870600	    -14.52924616	      0.00000000	      0.00000000	    -21.32735350	      1.21048858	      1.92061933	      9.12938219	    -15.27364245	     13.56348160	     40.57028541	     74.56498975	      0.00000000	      0.00000000	     -2.52896767	    -20.90597854	     18.94437400	     40.39245087	     72.53689967	      0.00000000	      0.00000000
      0.66800000	     76.10135151	     79.59035433	    -73.64089024	      1.05648882	      0.30814659	      0.93421568	    -25.70994531	      3.50161891	     -0.64900254	     28.34268993	      0.49467326	    -32.31802827	      0.00000000	      0.00000000	     18.95547690	     -0.55117960	      3.62368533	     27.83167458	      0.48575436	    -14.25017303	      0.00000000	      0.00000000	    -21.35856918	      1.16307311	      1.61849624	      8.93043218	    -15.03081525	     13.42473374	     40.45994276	     74.55681472	      0.00000000	      0.00000000	     -2.51854163	    -20.96262746	     18.93426039	     40.28581952	     72.47374373	      0.00000000	      0.00000000
      0.67200000	     76.47065972	     79.57924601	    -73.80384468	      1.06285194	      0.30861449	      0.93491360	    -25.35788987	      3.49004356	     -0.64284683	     29.13886594	      0.50856915	    -33.45559718	      0.00000000	      0.00000000	     18.72485600	     -0.40440821	      3.83209739	     28.29827238	      0.49389803	    -13.68248309	      0.00000000	      0.00000000	    -21.32860869	      1.10652920	      1.36945994	      8.74935700	    -14.84609266	     13.28385124	     40.20284972	     74.50971783	      0.00000000	      0.00000000	     -2.31097872	    -20.93886243	     19.09728821	     39.91507882	     72.42566487	      0.00000000	      0.00000000
      0.67600000	     76.93401600	     79.66558156	    -74.08019719	      1.06925896	      0.30920154	      0.93540336	    -24.84403501	      3.38256608	     -0.80470925	     30.07093779	      0.52483687	    -34.44193896	      0.00000000	      0.00000000	     18.55539453	     -0.20667333	      4.04271173	     28.73003893	      0.50143377	    -13.03338327	      0.00000000	      0.00000000	    -21.13509680	      1.03085882	      1.18845908	      8.48091847	    -14.70172103	     13.11924162	     39.99592018	     74.41944818	      0.00000000	      0.00000000	     -2.19657583	    -21.01950121	     19.47975547	     39.74422839	     72.44532041	      0.00000000	      0.00000000
      0.68000000	     78.09950003	     80.03568139	    -75.01054480	      1.07533537	      0.31019462	      0.93554768	    -23.88425186	      3.02383129	     -1.23342903	     31.42521476	      0.54847347	    -34.70981267	      0.00000000	      0.00000000	     18.65787649	      0.23236315	      4.20182772	     29.06467986	      0.50727436	    -12.65845487	      0.00000000	      0.00000000	    -20.75050107	      0.77584175	      0.99762267	      8.06572063	    -14.57192239	     12.66150115	     40.03110987	     74.07109858	      0.00000000	      0.00000000	     -1.99385412	    -21.04721872	     19.86974301	     39.50178813	     72.38025453	      0.00000000	      0.00000000
      0.68400000	     78.35356572	     79.90467892	    -75.06244704	      1.08163714	      0.31053024	      0.93650304	    -23.63129647	      3.08121250	     -1.23679866	     32.18839677	      0.56179350	    -35.34233899	      0.00000000	      0.00000000	     18.18479050	      0.26354932	      4.29883045	     29.28635900	      0.51114339	    -12.19491066	      0.00000000	      0.00000000	    -20.84647889	      0.76374208	      0.76157076	      7.88934917	    -14.38617540	     12.54118812	     39.80876675	     74.02560646	      0.00000000	      0.00000000	     -1.92625151	    -21.10146134	     19.91162031	     39.45038859	     72.37564847	      0.00000000	      0.00000000
      0.68800000	     79.93882147	     80.12429151	    -76.48228478	      1.08756753	      0.31146468	      0.93698618	    -22.80732807	      2.65123656	     -1.61685228	     33.53782394	      0.58534545	    -35.47880901	      0.00000000	      0.00000000	     17.97485767	      0.70751166	      4.41734692	     29.38717327	      0.51290293	    -11.74714548	      0.00000000	      0.00000000	    -20.63180385	      0.47212026	      0.55498179	      7.59417539	    -14.29746307	     12.58372029	     39.59517643	     74.35497702	      0.00000000	      0.00000000	     -1.76112017	    -21.11978746	     20.16258631	     39.33816821	     72.06192455	      0.00000000	      0.00000000
